<svg xmlns="http://www.w3.org/2000/svg" viewBox="0 0 960 600" role="img" aria-label="United States map fallback">
  <rect width="960" height="600" fill="#f3f7ff"/>
  <g fill="none" stroke="#9db4d8" stroke-width="2">
    <path d="M77 266l24-22 47-5 61-29 79 6 52-17 37 6 50-16 44 8 62-2 52 17 68 8 39 27-8 34-34 16-38 4-34 20-52 10-74 3-44 12-89 7-73-18-67-3-45-14z"/>
    <path d="M282 405l32 20 64 5 80 11 61-6 70 17 12 30-23 18-73-9-68 8-52-15-72 4-44-28z"/>
    <path d="M655 420l29-9 31 5 18 16-7 26-31 13-30-11-13-17z"/>
  </g>
  <g stroke="#c4d2e8" stroke-width="1">
    <line x1="160" y1="240" x2="160" y2="350"/>
    <line x1="220" y1="220" x2="220" y2="350"/>
    <line x1="280" y1="215" x2="280" y2="380"/>
    <line x1="340" y1="204" x2="340" y2="392"/>
    <line x1="410" y1="195" x2="410" y2="400"/>
    <line x1="480" y1="195" x2="480" y2="398"/>
    <line x1="550" y1="202" x2="550" y2="395"/>
    <line x1="620" y1="215" x2="620" y2="390"/>
    <line x1="690" y1="236" x2="690" y2="385"/>
    <line x1="760" y1="258" x2="760" y2="360"/>
    <line x1="100" y1="275" x2="820" y2="275"/>
    <line x1="95" y1="315" x2="812" y2="315"/>
  </g>
</svg>
